<?xml version="1.0" standalone="no"?>
<!DOCTYPE svg PUBLIC "-//W3C//DTD SVG 20010904//EN"
 "http://www.w3.org/TR/2001/REC-SVG-20010904/DTD/svg10.dtd">
<svg version="1.0" xmlns="http://www.w3.org/2000/svg"
 width="1500.000000pt" height="1500.000000pt" viewBox="0 0 1500.000000 1500.000000"
 preserveAspectRatio="xMidYMid meet">
<metadata>
Created by potrace 1.11, written by Peter Selinger 2001-2013
</metadata>
<g transform="translate(0.000000,1500.000000) scale(0.100000,-0.100000)"
fill="#000000" stroke="none">
<path d="M7160 14993 c-1839 -84 -3580 -839 -4894 -2123 -850 -830 -1480
-1825 -1865 -2945 -158 -458 -287 -1019 -346 -1505 -40 -335 -49 -502 -49
-920 0 -587 36 -960 144 -1500 450 -2238 1940 -4182 3990 -5205 1025 -512
2066 -768 3220 -792 990 -20 1967 155 2880 514 1728 681 3142 1975 3968 3630
636 1272 891 2651 756 4087 -62 667 -231 1370 -481 2006 -95 241 -161 386
-294 650 -933 1851 -2630 3254 -4619 3820 -699 198 -1389 293 -2100 288 -135
-1 -274 -3 -310 -5z m631 -2947 c74 -19 146 -39 160 -45 15 -5 116 -32 225
-60 110 -27 516 -133 904 -235 706 -186 788 -208 1105 -290 1247 -327 1601
-422 1665 -449 64 -27 75 -36 78 -59 4 -34 -23 -59 -91 -86 -29 -11 -108 -45
-177 -75 -275 -121 -3730 -1557 -3804 -1582 -201 -67 -418 -85 -576 -47 -41
10 -428 166 -860 347 -1228 513 -1947 813 -2575 1075 -749 312 -777 326 -759
375 7 17 62 48 128 71 23 8 347 95 721 194 374 98 743 195 820 215 77 21 214
57 305 80 91 24 199 52 240 63 41 11 147 39 235 62 88 23 511 134 940 247 429
113 812 211 850 218 39 7 129 14 201 14 118 1 144 -2 265 -33z m-4961 -1672
c65 -23 214 -90 465 -209 55 -26 186 -87 290 -135 105 -49 240 -111 300 -140
61 -29 243 -114 405 -190 162 -76 349 -164 415 -195 229 -109 310 -148 380
-180 39 -18 122 -57 185 -88 220 -104 461 -218 588 -276 532 -244 904 -426
973 -477 73 -53 128 -120 170 -209 86 -178 93 -293 109 -1985 5 -564 14 -1200
20 -1415 5 -214 12 -653 16 -975 3 -322 9 -727 14 -900 12 -453 -1 -541 -83
-548 -27 -2 -55 6 -105 32 -75 40 -120 73 -537 397 -159 124 -789 612 -1400
1085 -1539 1192 -1512 1172 -1562 1234 -58 73 -118 198 -143 296 -11 43 -47
268 -80 499 -33 231 -69 481 -80 555 -62 419 -93 631 -111 760 -11 80 -27 186
-35 235 -8 50 -18 124 -24 165 -5 41 -12 89 -15 105 -2 17 -18 127 -35 245
-17 118 -33 226 -36 240 -5 32 -9 57 -39 275 -14 99 -27 198 -30 220 -6 38
-19 122 -30 190 -3 17 -10 68 -15 115 -6 47 -13 94 -15 105 -3 11 -12 72 -20
135 -8 63 -35 255 -60 425 -35 239 -45 339 -45 437 0 134 8 169 44 186 32 16
49 14 126 -14z m9504 -4 c43 -42 39 -211 -14 -555 -17 -110 -32 -213 -35 -230
-2 -16 -22 -158 -45 -315 -53 -369 -49 -345 -55 -382 -18 -114 -37 -243 -45
-303 -16 -121 -58 -411 -94 -655 -19 -129 -38 -257 -41 -285 -4 -27 -13 -90
-21 -140 -8 -49 -32 -216 -54 -370 -22 -154 -53 -372 -70 -485 -17 -113 -39
-266 -50 -340 -11 -74 -33 -227 -50 -340 -17 -113 -35 -234 -40 -270 -33 -224
-52 -296 -104 -395 -65 -124 4 -68 -2060 -1668 -1274 -988 -1440 -1115 -1507
-1150 -118 -62 -167 -43 -189 73 -7 35 -9 178 -5 395 3 187 7 498 10 690 3
193 10 699 16 1125 29 2298 45 3162 59 3255 17 110 37 179 75 254 40 79 133
185 204 230 26 17 411 203 857 415 445 211 895 425 999 476 105 50 291 138
415 195 202 92 331 153 695 325 775 366 971 454 1060 474 31 6 68 -3 89 -24z"/>
</g>
</svg>
